<svg xmlns:xlink="http://www.w3.org/1999/xlink" width="413.272793pt" height="316.379094pt" viewBox="0 0 413.272793 316.379094" xmlns="http://www.w3.org/2000/svg" version="1.1" style="width: 100%; height: 100%;">
 <metadata>
  <rdf:rdf xmlns:dc="http://purl.org/dc/elements/1.1/" xmlns:cc="http://creativecommons.org/ns#" xmlns:rdf="http://www.w3.org/1999/02/22-rdf-syntax-ns#">
   <cc:work>
    <dc:type rdf:resource="http://purl.org/dc/dcmitype/StillImage"></dc:type>
    <dc:date>2022-12-23T22:27:57.277653</dc:date>
    <dc:format>image/svg+xml</dc:format>
    <dc:creator>
     <cc:agent>
      <dc:title>Matplotlib v3.5.2, https://matplotlib.org/</dc:title>
     </cc:agent>
    </dc:creator>
   </cc:work>
  </rdf:rdf>
 </metadata>
 <defs>
  <style type="text/css">*{stroke-linejoin: round; stroke-linecap: butt}</style>
 </defs>
 <g id="figure_1">
  <g id="patch_1">
   <path d="M 0 316.379094 
L 413.272793 316.379094 
L 413.272793 0 
L 0 0 
z
" style="fill: #ffffff"></path>
  </g>
  <g id="axes_1">
   <g id="patch_2">
    <path d="M 44.531719 289.61925 
L 401.651719 289.61925 
L 401.651719 23.50725 
L 44.531719 23.50725 
z
" style="fill: #e5e5e5"></path>
   </g>
   <g id="matplotlib.axis_1">
    <g id="xtick_1">
     <g id="line2d_1">
      <path d="M 60.764446 289.61925 
L 60.764446 23.50725 
" clip-path="url(#p72be0d9531)" style="fill: none; stroke: #ffffff; stroke-linecap: round"></path>
     </g>
     <g id="text_1">
      <!-- 0 -->
      <g style="fill: #555555" transform="translate(57.70593 306.992844)scale(0.11 -0.11)">
       <defs>
        <path id="ArialMT-30" d="M 266 2259 
Q 266 3072 433 3567 
Q 600 4063 929 4331 
Q 1259 4600 1759 4600 
Q 2128 4600 2406 4451 
Q 2684 4303 2865 4023 
Q 3047 3744 3150 3342 
Q 3253 2941 3253 2259 
Q 3253 1453 3087 958 
Q 2922 463 2592 192 
Q 2263 -78 1759 -78 
Q 1097 -78 719 397 
Q 266 969 266 2259 
z
M 844 2259 
Q 844 1131 1108 757 
Q 1372 384 1759 384 
Q 2147 384 2411 759 
Q 2675 1134 2675 2259 
Q 2675 3391 2411 3762 
Q 2147 4134 1753 4134 
Q 1366 4134 1134 3806 
Q 844 3388 844 2259 
z
" transform="scale(0.015625)"></path>
       </defs>
       <use xlink:href="#ArialMT-30"></use>
      </g>
     </g>
    </g>
    <g id="xtick_2">
     <g id="line2d_2">
      <path d="M 109.220348 289.61925 
L 109.220348 23.50725 
" clip-path="url(#p72be0d9531)" style="fill: none; stroke: #ffffff; stroke-linecap: round"></path>
     </g>
     <g id="text_2">
      <!-- 5 -->
      <g style="fill: #555555" transform="translate(106.161833 306.992844)scale(0.11 -0.11)">
       <defs>
        <path id="ArialMT-35" d="M 266 1200 
L 856 1250 
Q 922 819 1161 601 
Q 1400 384 1738 384 
Q 2144 384 2425 690 
Q 2706 997 2706 1503 
Q 2706 1984 2436 2262 
Q 2166 2541 1728 2541 
Q 1456 2541 1237 2417 
Q 1019 2294 894 2097 
L 366 2166 
L 809 4519 
L 3088 4519 
L 3088 3981 
L 1259 3981 
L 1013 2750 
Q 1425 3038 1878 3038 
Q 2478 3038 2890 2622 
Q 3303 2206 3303 1553 
Q 3303 931 2941 478 
Q 2500 -78 1738 -78 
Q 1113 -78 717 272 
Q 322 622 266 1200 
z
" transform="scale(0.015625)"></path>
       </defs>
       <use xlink:href="#ArialMT-35"></use>
      </g>
     </g>
    </g>
    <g id="xtick_3">
     <g id="line2d_3">
      <path d="M 157.676251 289.61925 
L 157.676251 23.50725 
" clip-path="url(#p72be0d9531)" style="fill: none; stroke: #ffffff; stroke-linecap: round"></path>
     </g>
     <g id="text_3">
      <!-- 10 -->
      <g style="fill: #555555" transform="translate(151.559219 306.992844)scale(0.11 -0.11)">
       <defs>
        <path id="ArialMT-31" d="M 2384 0 
L 1822 0 
L 1822 3584 
Q 1619 3391 1289 3197 
Q 959 3003 697 2906 
L 697 3450 
Q 1169 3672 1522 3987 
Q 1875 4303 2022 4600 
L 2384 4600 
L 2384 0 
z
" transform="scale(0.015625)"></path>
       </defs>
       <use xlink:href="#ArialMT-31"></use>
       <use xlink:href="#ArialMT-30" x="55.615234"></use>
      </g>
     </g>
    </g>
    <g id="xtick_4">
     <g id="line2d_4">
      <path d="M 206.132153 289.61925 
L 206.132153 23.50725 
" clip-path="url(#p72be0d9531)" style="fill: none; stroke: #ffffff; stroke-linecap: round"></path>
     </g>
     <g id="text_4">
      <!-- 15 -->
      <g style="fill: #555555" transform="translate(200.015122 306.992844)scale(0.11 -0.11)">
       <use xlink:href="#ArialMT-31"></use>
       <use xlink:href="#ArialMT-35" x="55.615234"></use>
      </g>
     </g>
    </g>
    <g id="xtick_5">
     <g id="line2d_5">
      <path d="M 254.588055 289.61925 
L 254.588055 23.50725 
" clip-path="url(#p72be0d9531)" style="fill: none; stroke: #ffffff; stroke-linecap: round"></path>
     </g>
     <g id="text_5">
      <!-- 20 -->
      <g style="fill: #555555" transform="translate(248.471024 306.992844)scale(0.11 -0.11)">
       <defs>
        <path id="ArialMT-32" d="M 3222 541 
L 3222 0 
L 194 0 
Q 188 203 259 391 
Q 375 700 629 1000 
Q 884 1300 1366 1694 
Q 2113 2306 2375 2664 
Q 2638 3022 2638 3341 
Q 2638 3675 2398 3904 
Q 2159 4134 1775 4134 
Q 1369 4134 1125 3890 
Q 881 3647 878 3216 
L 300 3275 
Q 359 3922 746 4261 
Q 1134 4600 1788 4600 
Q 2447 4600 2831 4234 
Q 3216 3869 3216 3328 
Q 3216 3053 3103 2787 
Q 2991 2522 2730 2228 
Q 2469 1934 1863 1422 
Q 1356 997 1212 845 
Q 1069 694 975 541 
L 3222 541 
z
" transform="scale(0.015625)"></path>
       </defs>
       <use xlink:href="#ArialMT-32"></use>
       <use xlink:href="#ArialMT-30" x="55.615234"></use>
      </g>
     </g>
    </g>
    <g id="xtick_6">
     <g id="line2d_6">
      <path d="M 303.043958 289.61925 
L 303.043958 23.50725 
" clip-path="url(#p72be0d9531)" style="fill: none; stroke: #ffffff; stroke-linecap: round"></path>
     </g>
     <g id="text_6">
      <!-- 25 -->
      <g style="fill: #555555" transform="translate(296.926926 306.992844)scale(0.11 -0.11)">
       <use xlink:href="#ArialMT-32"></use>
       <use xlink:href="#ArialMT-35" x="55.615234"></use>
      </g>
     </g>
    </g>
    <g id="xtick_7">
     <g id="line2d_7">
      <path d="M 351.49986 289.61925 
L 351.49986 23.50725 
" clip-path="url(#p72be0d9531)" style="fill: none; stroke: #ffffff; stroke-linecap: round"></path>
     </g>
     <g id="text_7">
      <!-- 30 -->
      <g style="fill: #555555" transform="translate(345.382829 306.992844)scale(0.11 -0.11)">
       <defs>
        <path id="ArialMT-33" d="M 269 1209 
L 831 1284 
Q 928 806 1161 595 
Q 1394 384 1728 384 
Q 2125 384 2398 659 
Q 2672 934 2672 1341 
Q 2672 1728 2419 1979 
Q 2166 2231 1775 2231 
Q 1616 2231 1378 2169 
L 1441 2663 
Q 1497 2656 1531 2656 
Q 1891 2656 2178 2843 
Q 2466 3031 2466 3422 
Q 2466 3731 2256 3934 
Q 2047 4138 1716 4138 
Q 1388 4138 1169 3931 
Q 950 3725 888 3313 
L 325 3413 
Q 428 3978 793 4289 
Q 1159 4600 1703 4600 
Q 2078 4600 2393 4439 
Q 2709 4278 2876 4000 
Q 3044 3722 3044 3409 
Q 3044 3113 2884 2869 
Q 2725 2625 2413 2481 
Q 2819 2388 3044 2092 
Q 3269 1797 3269 1353 
Q 3269 753 2831 336 
Q 2394 -81 1725 -81 
Q 1122 -81 723 278 
Q 325 638 269 1209 
z
" transform="scale(0.015625)"></path>
       </defs>
       <use xlink:href="#ArialMT-33"></use>
       <use xlink:href="#ArialMT-30" x="55.615234"></use>
      </g>
     </g>
    </g>
    <g id="xtick_8">
     <g id="line2d_8">
      <path d="M 399.955762 289.61925 
L 399.955762 23.50725 
" clip-path="url(#p72be0d9531)" style="fill: none; stroke: #ffffff; stroke-linecap: round"></path>
     </g>
     <g id="text_8">
      <!-- 35 -->
      <g style="fill: #555555" transform="translate(393.838731 306.992844)scale(0.11 -0.11)">
       <use xlink:href="#ArialMT-33"></use>
       <use xlink:href="#ArialMT-35" x="55.615234"></use>
      </g>
     </g>
    </g>
   </g>
   <g id="matplotlib.axis_2">
    <g id="ytick_1">
     <g id="line2d_9">
      <path d="M 44.531719 289.61925 
L 401.651719 289.61925 
" clip-path="url(#p72be0d9531)" style="fill: none; stroke: #ffffff; stroke-linecap: round"></path>
     </g>
     <g id="text_9">
      <!-- −1.00 -->
      <g style="fill: #555555" transform="translate(7.2 293.556047)scale(0.11 -0.11)">
       <defs>
        <path id="ArialMT-2212" d="M 3381 1997 
L 356 1997 
L 356 2522 
L 3381 2522 
L 3381 1997 
z
" transform="scale(0.015625)"></path>
        <path id="ArialMT-2e" d="M 581 0 
L 581 641 
L 1222 641 
L 1222 0 
L 581 0 
z
" transform="scale(0.015625)"></path>
       </defs>
       <use xlink:href="#ArialMT-2212"></use>
       <use xlink:href="#ArialMT-31" x="58.398438"></use>
       <use xlink:href="#ArialMT-2e" x="114.013672"></use>
       <use xlink:href="#ArialMT-30" x="141.796875"></use>
       <use xlink:href="#ArialMT-30" x="197.412109"></use>
      </g>
     </g>
    </g>
    <g id="ytick_2">
     <g id="line2d_10">
      <path d="M 44.531719 256.35525 
L 401.651719 256.35525 
" clip-path="url(#p72be0d9531)" style="fill: none; stroke: #ffffff; stroke-linecap: round"></path>
     </g>
     <g id="text_10">
      <!-- −0.75 -->
      <g style="fill: #555555" transform="translate(7.2 260.292047)scale(0.11 -0.11)">
       <defs>
        <path id="ArialMT-37" d="M 303 3981 
L 303 4522 
L 3269 4522 
L 3269 4084 
Q 2831 3619 2401 2847 
Q 1972 2075 1738 1259 
Q 1569 684 1522 0 
L 944 0 
Q 953 541 1156 1306 
Q 1359 2072 1739 2783 
Q 2119 3494 2547 3981 
L 303 3981 
z
" transform="scale(0.015625)"></path>
       </defs>
       <use xlink:href="#ArialMT-2212"></use>
       <use xlink:href="#ArialMT-30" x="58.398438"></use>
       <use xlink:href="#ArialMT-2e" x="114.013672"></use>
       <use xlink:href="#ArialMT-37" x="141.796875"></use>
       <use xlink:href="#ArialMT-35" x="197.412109"></use>
      </g>
     </g>
    </g>
    <g id="ytick_3">
     <g id="line2d_11">
      <path d="M 44.531719 223.09125 
L 401.651719 223.09125 
" clip-path="url(#p72be0d9531)" style="fill: none; stroke: #ffffff; stroke-linecap: round"></path>
     </g>
     <g id="text_11">
      <!-- −0.50 -->
      <g style="fill: #555555" transform="translate(7.2 227.028047)scale(0.11 -0.11)">
       <use xlink:href="#ArialMT-2212"></use>
       <use xlink:href="#ArialMT-30" x="58.398438"></use>
       <use xlink:href="#ArialMT-2e" x="114.013672"></use>
       <use xlink:href="#ArialMT-35" x="141.796875"></use>
       <use xlink:href="#ArialMT-30" x="197.412109"></use>
      </g>
     </g>
    </g>
    <g id="ytick_4">
     <g id="line2d_12">
      <path d="M 44.531719 189.82725 
L 401.651719 189.82725 
" clip-path="url(#p72be0d9531)" style="fill: none; stroke: #ffffff; stroke-linecap: round"></path>
     </g>
     <g id="text_12">
      <!-- −0.25 -->
      <g style="fill: #555555" transform="translate(7.2 193.764047)scale(0.11 -0.11)">
       <use xlink:href="#ArialMT-2212"></use>
       <use xlink:href="#ArialMT-30" x="58.398438"></use>
       <use xlink:href="#ArialMT-2e" x="114.013672"></use>
       <use xlink:href="#ArialMT-32" x="141.796875"></use>
       <use xlink:href="#ArialMT-35" x="197.412109"></use>
      </g>
     </g>
    </g>
    <g id="ytick_5">
     <g id="line2d_13">
      <path d="M 44.531719 156.56325 
L 401.651719 156.56325 
" clip-path="url(#p72be0d9531)" style="fill: none; stroke: #ffffff; stroke-linecap: round"></path>
     </g>
     <g id="text_13">
      <!-- 0.00 -->
      <g style="fill: #555555" transform="translate(13.624688 160.500047)scale(0.11 -0.11)">
       <use xlink:href="#ArialMT-30"></use>
       <use xlink:href="#ArialMT-2e" x="55.615234"></use>
       <use xlink:href="#ArialMT-30" x="83.398438"></use>
       <use xlink:href="#ArialMT-30" x="139.013672"></use>
      </g>
     </g>
    </g>
    <g id="ytick_6">
     <g id="line2d_14">
      <path d="M 44.531719 123.29925 
L 401.651719 123.29925 
" clip-path="url(#p72be0d9531)" style="fill: none; stroke: #ffffff; stroke-linecap: round"></path>
     </g>
     <g id="text_14">
      <!-- 0.25 -->
      <g style="fill: #555555" transform="translate(13.624688 127.236047)scale(0.11 -0.11)">
       <use xlink:href="#ArialMT-30"></use>
       <use xlink:href="#ArialMT-2e" x="55.615234"></use>
       <use xlink:href="#ArialMT-32" x="83.398438"></use>
       <use xlink:href="#ArialMT-35" x="139.013672"></use>
      </g>
     </g>
    </g>
    <g id="ytick_7">
     <g id="line2d_15">
      <path d="M 44.531719 90.03525 
L 401.651719 90.03525 
" clip-path="url(#p72be0d9531)" style="fill: none; stroke: #ffffff; stroke-linecap: round"></path>
     </g>
     <g id="text_15">
      <!-- 0.50 -->
      <g style="fill: #555555" transform="translate(13.624688 93.972047)scale(0.11 -0.11)">
       <use xlink:href="#ArialMT-30"></use>
       <use xlink:href="#ArialMT-2e" x="55.615234"></use>
       <use xlink:href="#ArialMT-35" x="83.398438"></use>
       <use xlink:href="#ArialMT-30" x="139.013672"></use>
      </g>
     </g>
    </g>
    <g id="ytick_8">
     <g id="line2d_16">
      <path d="M 44.531719 56.77125 
L 401.651719 56.77125 
" clip-path="url(#p72be0d9531)" style="fill: none; stroke: #ffffff; stroke-linecap: round"></path>
     </g>
     <g id="text_16">
      <!-- 0.75 -->
      <g style="fill: #555555" transform="translate(13.624688 60.708047)scale(0.11 -0.11)">
       <use xlink:href="#ArialMT-30"></use>
       <use xlink:href="#ArialMT-2e" x="55.615234"></use>
       <use xlink:href="#ArialMT-37" x="83.398438"></use>
       <use xlink:href="#ArialMT-35" x="139.013672"></use>
      </g>
     </g>
    </g>
    <g id="ytick_9">
     <g id="line2d_17">
      <path d="M 44.531719 23.50725 
L 401.651719 23.50725 
" clip-path="url(#p72be0d9531)" style="fill: none; stroke: #ffffff; stroke-linecap: round"></path>
     </g>
     <g id="text_17">
      <!-- 1.00 -->
      <g style="fill: #555555" transform="translate(13.624688 27.444047)scale(0.11 -0.11)">
       <use xlink:href="#ArialMT-31"></use>
       <use xlink:href="#ArialMT-2e" x="55.615234"></use>
       <use xlink:href="#ArialMT-30" x="83.398438"></use>
       <use xlink:href="#ArialMT-30" x="139.013672"></use>
      </g>
     </g>
    </g>
   </g>
   <g id="PolyCollection_1">
    <defs>
     <path id="m4a3745dfd3" d="M 65.610036 -165.964313 
L 65.610036 -153.667375 
L 80.146807 -153.667375 
L 89.837987 -153.667375 
L 99.529168 -153.667375 
L 109.220348 -153.667375 
L 118.911529 -153.667375 
L 128.602709 -153.667375 
L 138.29389 -153.667375 
L 147.98507 -153.667375 
L 157.676251 -153.667375 
L 167.367431 -153.667375 
L 177.058612 -153.667375 
L 186.749792 -153.667375 
L 196.440972 -153.667375 
L 206.132153 -153.667375 
L 215.823333 -153.667375 
L 225.514514 -153.667375 
L 235.205694 -153.667375 
L 244.896875 -153.667375 
L 254.588055 -153.667375 
L 264.279236 -153.667375 
L 273.970416 -153.667375 
L 283.661597 -153.667375 
L 293.352777 -153.667375 
L 303.043958 -153.667375 
L 312.735138 -153.667375 
L 322.426318 -153.667375 
L 332.117499 -153.667375 
L 341.808679 -153.667375 
L 351.49986 -153.667375 
L 361.19104 -153.667375 
L 370.882221 -153.667375 
L 385.418991 -153.667375 
L 385.418991 -165.964313 
L 385.418991 -165.964313 
L 370.882221 -165.964313 
L 361.19104 -165.964313 
L 351.49986 -165.964313 
L 341.808679 -165.964313 
L 332.117499 -165.964313 
L 322.426318 -165.964313 
L 312.735138 -165.964313 
L 303.043958 -165.964313 
L 293.352777 -165.964313 
L 283.661597 -165.964313 
L 273.970416 -165.964313 
L 264.279236 -165.964313 
L 254.588055 -165.964313 
L 244.896875 -165.964313 
L 235.205694 -165.964313 
L 225.514514 -165.964313 
L 215.823333 -165.964313 
L 206.132153 -165.964313 
L 196.440972 -165.964313 
L 186.749792 -165.964313 
L 177.058612 -165.964313 
L 167.367431 -165.964313 
L 157.676251 -165.964313 
L 147.98507 -165.964313 
L 138.29389 -165.964313 
L 128.602709 -165.964313 
L 118.911529 -165.964313 
L 109.220348 -165.964313 
L 99.529168 -165.964313 
L 89.837987 -165.964313 
L 80.146807 -165.964313 
L 65.610036 -165.964313 
z
" style="stroke: #eeeeee; stroke-opacity: 0.25; stroke-width: 0.5"></path>
    </defs>
    <g clip-path="url(#p72be0d9531)">
     <use xlink:href="#m4a3745dfd3" x="0" y="316.379094" style="fill: #e24a33; fill-opacity: 0.25; stroke: #eeeeee; stroke-opacity: 0.25; stroke-width: 0.5"></use>
    </g>
   </g>
   <g id="LineCollection_1">
    <path d="M 60.764446 156.56325 
L 60.764446 23.50725 
" clip-path="url(#p72be0d9531)" style="fill: none; stroke: #e24a33; stroke-width: 1.5"></path>
    <path d="M 70.455626 156.56325 
L 70.455626 157.230366 
" clip-path="url(#p72be0d9531)" style="fill: none; stroke: #e24a33; stroke-width: 1.5"></path>
    <path d="M 80.146807 156.56325 
L 80.146807 154.608403 
" clip-path="url(#p72be0d9531)" style="fill: none; stroke: #e24a33; stroke-width: 1.5"></path>
    <path d="M 89.837987 156.56325 
L 89.837987 161.108401 
" clip-path="url(#p72be0d9531)" style="fill: none; stroke: #e24a33; stroke-width: 1.5"></path>
    <path d="M 99.529168 156.56325 
L 99.529168 160.096592 
" clip-path="url(#p72be0d9531)" style="fill: none; stroke: #e24a33; stroke-width: 1.5"></path>
    <path d="M 109.220348 156.56325 
L 109.220348 151.521139 
" clip-path="url(#p72be0d9531)" style="fill: none; stroke: #e24a33; stroke-width: 1.5"></path>
    <path d="M 118.911529 156.56325 
L 118.911529 149.576313 
" clip-path="url(#p72be0d9531)" style="fill: none; stroke: #e24a33; stroke-width: 1.5"></path>
    <path d="M 128.602709 156.56325 
L 128.602709 152.988612 
" clip-path="url(#p72be0d9531)" style="fill: none; stroke: #e24a33; stroke-width: 1.5"></path>
    <path d="M 138.29389 156.56325 
L 138.29389 161.479069 
" clip-path="url(#p72be0d9531)" style="fill: none; stroke: #e24a33; stroke-width: 1.5"></path>
    <path d="M 147.98507 156.56325 
L 147.98507 166.686435 
" clip-path="url(#p72be0d9531)" style="fill: none; stroke: #e24a33; stroke-width: 1.5"></path>
    <path d="M 157.676251 156.56325 
L 157.676251 160.906518 
" clip-path="url(#p72be0d9531)" style="fill: none; stroke: #e24a33; stroke-width: 1.5"></path>
    <path d="M 167.367431 156.56325 
L 167.367431 159.726353 
" clip-path="url(#p72be0d9531)" style="fill: none; stroke: #e24a33; stroke-width: 1.5"></path>
    <path d="M 177.058612 156.56325 
L 177.058612 153.689204 
" clip-path="url(#p72be0d9531)" style="fill: none; stroke: #e24a33; stroke-width: 1.5"></path>
    <path d="M 186.749792 156.56325 
L 186.749792 153.146894 
" clip-path="url(#p72be0d9531)" style="fill: none; stroke: #e24a33; stroke-width: 1.5"></path>
    <path d="M 196.440972 156.56325 
L 196.440972 161.912279 
" clip-path="url(#p72be0d9531)" style="fill: none; stroke: #e24a33; stroke-width: 1.5"></path>
    <path d="M 206.132153 156.56325 
L 206.132153 161.997917 
" clip-path="url(#p72be0d9531)" style="fill: none; stroke: #e24a33; stroke-width: 1.5"></path>
    <path d="M 215.823333 156.56325 
L 215.823333 150.912752 
" clip-path="url(#p72be0d9531)" style="fill: none; stroke: #e24a33; stroke-width: 1.5"></path>
    <path d="M 225.514514 156.56325 
L 225.514514 151.106502 
" clip-path="url(#p72be0d9531)" style="fill: none; stroke: #e24a33; stroke-width: 1.5"></path>
    <path d="M 235.205694 156.56325 
L 235.205694 153.584133 
" clip-path="url(#p72be0d9531)" style="fill: none; stroke: #e24a33; stroke-width: 1.5"></path>
    <path d="M 244.896875 156.56325 
L 244.896875 153.661355 
" clip-path="url(#p72be0d9531)" style="fill: none; stroke: #e24a33; stroke-width: 1.5"></path>
    <path d="M 254.588055 156.56325 
L 254.588055 159.123496 
" clip-path="url(#p72be0d9531)" style="fill: none; stroke: #e24a33; stroke-width: 1.5"></path>
    <path d="M 264.279236 156.56325 
L 264.279236 157.670303 
" clip-path="url(#p72be0d9531)" style="fill: none; stroke: #e24a33; stroke-width: 1.5"></path>
    <path d="M 273.970416 156.56325 
L 273.970416 151.440989 
" clip-path="url(#p72be0d9531)" style="fill: none; stroke: #e24a33; stroke-width: 1.5"></path>
    <path d="M 283.661597 156.56325 
L 283.661597 152.527885 
" clip-path="url(#p72be0d9531)" style="fill: none; stroke: #e24a33; stroke-width: 1.5"></path>
    <path d="M 293.352777 156.56325 
L 293.352777 153.845447 
" clip-path="url(#p72be0d9531)" style="fill: none; stroke: #e24a33; stroke-width: 1.5"></path>
    <path d="M 303.043958 156.56325 
L 303.043958 155.916454 
" clip-path="url(#p72be0d9531)" style="fill: none; stroke: #e24a33; stroke-width: 1.5"></path>
    <path d="M 312.735138 156.56325 
L 312.735138 155.349915 
" clip-path="url(#p72be0d9531)" style="fill: none; stroke: #e24a33; stroke-width: 1.5"></path>
    <path d="M 322.426318 156.56325 
L 322.426318 155.931534 
" clip-path="url(#p72be0d9531)" style="fill: none; stroke: #e24a33; stroke-width: 1.5"></path>
    <path d="M 332.117499 156.56325 
L 332.117499 154.705867 
" clip-path="url(#p72be0d9531)" style="fill: none; stroke: #e24a33; stroke-width: 1.5"></path>
    <path d="M 341.808679 156.56325 
L 341.808679 155.1019 
" clip-path="url(#p72be0d9531)" style="fill: none; stroke: #e24a33; stroke-width: 1.5"></path>
    <path d="M 351.49986 156.56325 
L 351.49986 157.39543 
" clip-path="url(#p72be0d9531)" style="fill: none; stroke: #e24a33; stroke-width: 1.5"></path>
    <path d="M 361.19104 156.56325 
L 361.19104 162.75232 
" clip-path="url(#p72be0d9531)" style="fill: none; stroke: #e24a33; stroke-width: 1.5"></path>
    <path d="M 370.882221 156.56325 
L 370.882221 158.032494 
" clip-path="url(#p72be0d9531)" style="fill: none; stroke: #e24a33; stroke-width: 1.5"></path>
    <path d="M 380.573401 156.56325 
L 380.573401 155.710114 
" clip-path="url(#p72be0d9531)" style="fill: none; stroke: #e24a33; stroke-width: 1.5"></path>
   </g>
   <g id="line2d_18">
    <path d="M 44.531719 156.56325 
L 401.651719 156.56325 
" clip-path="url(#p72be0d9531)" style="fill: none; stroke: #e24a33; stroke-width: 1.5; stroke-linecap: round"></path>
   </g>
   <g id="line2d_19">
    <defs>
     <path id="m5986eabe45" d="M 0 2.5 
C 0.663008 2.5 1.29895 2.236584 1.767767 1.767767 
C 2.236584 1.29895 2.5 0.663008 2.5 0 
C 2.5 -0.663008 2.236584 -1.29895 1.767767 -1.767767 
C 1.29895 -2.236584 0.663008 -2.5 0 -2.5 
C -0.663008 -2.5 -1.29895 -2.236584 -1.767767 -1.767767 
C -2.236584 -1.29895 -2.5 -0.663008 -2.5 0 
C -2.5 0.663008 -2.236584 1.29895 -1.767767 1.767767 
C -1.29895 2.236584 -0.663008 2.5 0 2.5 
z
" style="stroke: #e24a33"></path>
    </defs>
    <g clip-path="url(#p72be0d9531)">
     <use xlink:href="#m5986eabe45" x="60.764446" y="23.50725" style="fill: #e24a33; stroke: #e24a33"></use>
     <use xlink:href="#m5986eabe45" x="70.455626" y="157.230366" style="fill: #e24a33; stroke: #e24a33"></use>
     <use xlink:href="#m5986eabe45" x="80.146807" y="154.608403" style="fill: #e24a33; stroke: #e24a33"></use>
     <use xlink:href="#m5986eabe45" x="89.837987" y="161.108401" style="fill: #e24a33; stroke: #e24a33"></use>
     <use xlink:href="#m5986eabe45" x="99.529168" y="160.096592" style="fill: #e24a33; stroke: #e24a33"></use>
     <use xlink:href="#m5986eabe45" x="109.220348" y="151.521139" style="fill: #e24a33; stroke: #e24a33"></use>
     <use xlink:href="#m5986eabe45" x="118.911529" y="149.576313" style="fill: #e24a33; stroke: #e24a33"></use>
     <use xlink:href="#m5986eabe45" x="128.602709" y="152.988612" style="fill: #e24a33; stroke: #e24a33"></use>
     <use xlink:href="#m5986eabe45" x="138.29389" y="161.479069" style="fill: #e24a33; stroke: #e24a33"></use>
     <use xlink:href="#m5986eabe45" x="147.98507" y="166.686435" style="fill: #e24a33; stroke: #e24a33"></use>
     <use xlink:href="#m5986eabe45" x="157.676251" y="160.906518" style="fill: #e24a33; stroke: #e24a33"></use>
     <use xlink:href="#m5986eabe45" x="167.367431" y="159.726353" style="fill: #e24a33; stroke: #e24a33"></use>
     <use xlink:href="#m5986eabe45" x="177.058612" y="153.689204" style="fill: #e24a33; stroke: #e24a33"></use>
     <use xlink:href="#m5986eabe45" x="186.749792" y="153.146894" style="fill: #e24a33; stroke: #e24a33"></use>
     <use xlink:href="#m5986eabe45" x="196.440972" y="161.912279" style="fill: #e24a33; stroke: #e24a33"></use>
     <use xlink:href="#m5986eabe45" x="206.132153" y="161.997917" style="fill: #e24a33; stroke: #e24a33"></use>
     <use xlink:href="#m5986eabe45" x="215.823333" y="150.912752" style="fill: #e24a33; stroke: #e24a33"></use>
     <use xlink:href="#m5986eabe45" x="225.514514" y="151.106502" style="fill: #e24a33; stroke: #e24a33"></use>
     <use xlink:href="#m5986eabe45" x="235.205694" y="153.584133" style="fill: #e24a33; stroke: #e24a33"></use>
     <use xlink:href="#m5986eabe45" x="244.896875" y="153.661355" style="fill: #e24a33; stroke: #e24a33"></use>
     <use xlink:href="#m5986eabe45" x="254.588055" y="159.123496" style="fill: #e24a33; stroke: #e24a33"></use>
     <use xlink:href="#m5986eabe45" x="264.279236" y="157.670303" style="fill: #e24a33; stroke: #e24a33"></use>
     <use xlink:href="#m5986eabe45" x="273.970416" y="151.440989" style="fill: #e24a33; stroke: #e24a33"></use>
     <use xlink:href="#m5986eabe45" x="283.661597" y="152.527885" style="fill: #e24a33; stroke: #e24a33"></use>
     <use xlink:href="#m5986eabe45" x="293.352777" y="153.845447" style="fill: #e24a33; stroke: #e24a33"></use>
     <use xlink:href="#m5986eabe45" x="303.043958" y="155.916454" style="fill: #e24a33; stroke: #e24a33"></use>
     <use xlink:href="#m5986eabe45" x="312.735138" y="155.349915" style="fill: #e24a33; stroke: #e24a33"></use>
     <use xlink:href="#m5986eabe45" x="322.426318" y="155.931534" style="fill: #e24a33; stroke: #e24a33"></use>
     <use xlink:href="#m5986eabe45" x="332.117499" y="154.705867" style="fill: #e24a33; stroke: #e24a33"></use>
     <use xlink:href="#m5986eabe45" x="341.808679" y="155.1019" style="fill: #e24a33; stroke: #e24a33"></use>
     <use xlink:href="#m5986eabe45" x="351.49986" y="157.39543" style="fill: #e24a33; stroke: #e24a33"></use>
     <use xlink:href="#m5986eabe45" x="361.19104" y="162.75232" style="fill: #e24a33; stroke: #e24a33"></use>
     <use xlink:href="#m5986eabe45" x="370.882221" y="158.032494" style="fill: #e24a33; stroke: #e24a33"></use>
     <use xlink:href="#m5986eabe45" x="380.573401" y="155.710114" style="fill: #e24a33; stroke: #e24a33"></use>
    </g>
   </g>
   <g id="patch_3">
    <path d="M 44.531719 289.61925 
L 44.531719 23.50725 
" style="fill: none; stroke: #ffffff; stroke-linejoin: miter; stroke-linecap: square"></path>
   </g>
   <g id="patch_4">
    <path d="M 401.651719 289.61925 
L 401.651719 23.50725 
" style="fill: none; stroke: #ffffff; stroke-linejoin: miter; stroke-linecap: square"></path>
   </g>
   <g id="patch_5">
    <path d="M 44.531719 289.61925 
L 401.651719 289.61925 
" style="fill: none; stroke: #ffffff; stroke-linejoin: miter; stroke-linecap: square"></path>
   </g>
   <g id="patch_6">
    <path d="M 44.531719 23.50725 
L 401.651719 23.50725 
" style="fill: none; stroke: #ffffff; stroke-linejoin: miter; stroke-linecap: square"></path>
   </g>
   <g id="text_18">
    <!-- Partial Autocorrelation -->
    <g style="fill: #262626" transform="translate(152.655469 17.50725)scale(0.144 -0.144)">
     <defs>
      <path id="ArialMT-50" d="M 494 0 
L 494 4581 
L 2222 4581 
Q 2678 4581 2919 4538 
Q 3256 4481 3484 4323 
Q 3713 4166 3852 3881 
Q 3991 3597 3991 3256 
Q 3991 2672 3619 2267 
Q 3247 1863 2275 1863 
L 1100 1863 
L 1100 0 
L 494 0 
z
M 1100 2403 
L 2284 2403 
Q 2872 2403 3119 2622 
Q 3366 2841 3366 3238 
Q 3366 3525 3220 3729 
Q 3075 3934 2838 4000 
Q 2684 4041 2272 4041 
L 1100 4041 
L 1100 2403 
z
" transform="scale(0.015625)"></path>
      <path id="ArialMT-61" d="M 2588 409 
Q 2275 144 1986 34 
Q 1697 -75 1366 -75 
Q 819 -75 525 192 
Q 231 459 231 875 
Q 231 1119 342 1320 
Q 453 1522 633 1644 
Q 813 1766 1038 1828 
Q 1203 1872 1538 1913 
Q 2219 1994 2541 2106 
Q 2544 2222 2544 2253 
Q 2544 2597 2384 2738 
Q 2169 2928 1744 2928 
Q 1347 2928 1158 2789 
Q 969 2650 878 2297 
L 328 2372 
Q 403 2725 575 2942 
Q 747 3159 1072 3276 
Q 1397 3394 1825 3394 
Q 2250 3394 2515 3294 
Q 2781 3194 2906 3042 
Q 3031 2891 3081 2659 
Q 3109 2516 3109 2141 
L 3109 1391 
Q 3109 606 3145 398 
Q 3181 191 3288 0 
L 2700 0 
Q 2613 175 2588 409 
z
M 2541 1666 
Q 2234 1541 1622 1453 
Q 1275 1403 1131 1340 
Q 988 1278 909 1158 
Q 831 1038 831 891 
Q 831 666 1001 516 
Q 1172 366 1500 366 
Q 1825 366 2078 508 
Q 2331 650 2450 897 
Q 2541 1088 2541 1459 
L 2541 1666 
z
" transform="scale(0.015625)"></path>
      <path id="ArialMT-72" d="M 416 0 
L 416 3319 
L 922 3319 
L 922 2816 
Q 1116 3169 1280 3281 
Q 1444 3394 1641 3394 
Q 1925 3394 2219 3213 
L 2025 2691 
Q 1819 2813 1613 2813 
Q 1428 2813 1281 2702 
Q 1134 2591 1072 2394 
Q 978 2094 978 1738 
L 978 0 
L 416 0 
z
" transform="scale(0.015625)"></path>
      <path id="ArialMT-74" d="M 1650 503 
L 1731 6 
Q 1494 -44 1306 -44 
Q 1000 -44 831 53 
Q 663 150 594 308 
Q 525 466 525 972 
L 525 2881 
L 113 2881 
L 113 3319 
L 525 3319 
L 525 4141 
L 1084 4478 
L 1084 3319 
L 1650 3319 
L 1650 2881 
L 1084 2881 
L 1084 941 
Q 1084 700 1114 631 
Q 1144 563 1211 522 
Q 1278 481 1403 481 
Q 1497 481 1650 503 
z
" transform="scale(0.015625)"></path>
      <path id="ArialMT-69" d="M 425 3934 
L 425 4581 
L 988 4581 
L 988 3934 
L 425 3934 
z
M 425 0 
L 425 3319 
L 988 3319 
L 988 0 
L 425 0 
z
" transform="scale(0.015625)"></path>
      <path id="ArialMT-6c" d="M 409 0 
L 409 4581 
L 972 4581 
L 972 0 
L 409 0 
z
" transform="scale(0.015625)"></path>
      <path id="ArialMT-20" transform="scale(0.015625)"></path>
      <path id="ArialMT-41" d="M -9 0 
L 1750 4581 
L 2403 4581 
L 4278 0 
L 3588 0 
L 3053 1388 
L 1138 1388 
L 634 0 
L -9 0 
z
M 1313 1881 
L 2866 1881 
L 2388 3150 
Q 2169 3728 2063 4100 
Q 1975 3659 1816 3225 
L 1313 1881 
z
" transform="scale(0.015625)"></path>
      <path id="ArialMT-75" d="M 2597 0 
L 2597 488 
Q 2209 -75 1544 -75 
Q 1250 -75 995 37 
Q 741 150 617 320 
Q 494 491 444 738 
Q 409 903 409 1263 
L 409 3319 
L 972 3319 
L 972 1478 
Q 972 1038 1006 884 
Q 1059 663 1231 536 
Q 1403 409 1656 409 
Q 1909 409 2131 539 
Q 2353 669 2445 892 
Q 2538 1116 2538 1541 
L 2538 3319 
L 3100 3319 
L 3100 0 
L 2597 0 
z
" transform="scale(0.015625)"></path>
      <path id="ArialMT-6f" d="M 213 1659 
Q 213 2581 725 3025 
Q 1153 3394 1769 3394 
Q 2453 3394 2887 2945 
Q 3322 2497 3322 1706 
Q 3322 1066 3130 698 
Q 2938 331 2570 128 
Q 2203 -75 1769 -75 
Q 1072 -75 642 372 
Q 213 819 213 1659 
z
M 791 1659 
Q 791 1022 1069 705 
Q 1347 388 1769 388 
Q 2188 388 2466 706 
Q 2744 1025 2744 1678 
Q 2744 2294 2464 2611 
Q 2184 2928 1769 2928 
Q 1347 2928 1069 2612 
Q 791 2297 791 1659 
z
" transform="scale(0.015625)"></path>
      <path id="ArialMT-63" d="M 2588 1216 
L 3141 1144 
Q 3050 572 2676 248 
Q 2303 -75 1759 -75 
Q 1078 -75 664 370 
Q 250 816 250 1647 
Q 250 2184 428 2587 
Q 606 2991 970 3192 
Q 1334 3394 1763 3394 
Q 2303 3394 2647 3120 
Q 2991 2847 3088 2344 
L 2541 2259 
Q 2463 2594 2264 2762 
Q 2066 2931 1784 2931 
Q 1359 2931 1093 2626 
Q 828 2322 828 1663 
Q 828 994 1084 691 
Q 1341 388 1753 388 
Q 2084 388 2306 591 
Q 2528 794 2588 1216 
z
" transform="scale(0.015625)"></path>
      <path id="ArialMT-65" d="M 2694 1069 
L 3275 997 
Q 3138 488 2766 206 
Q 2394 -75 1816 -75 
Q 1088 -75 661 373 
Q 234 822 234 1631 
Q 234 2469 665 2931 
Q 1097 3394 1784 3394 
Q 2450 3394 2872 2941 
Q 3294 2488 3294 1666 
Q 3294 1616 3291 1516 
L 816 1516 
Q 847 969 1125 678 
Q 1403 388 1819 388 
Q 2128 388 2347 550 
Q 2566 713 2694 1069 
z
M 847 1978 
L 2700 1978 
Q 2663 2397 2488 2606 
Q 2219 2931 1791 2931 
Q 1403 2931 1139 2672 
Q 875 2413 847 1978 
z
" transform="scale(0.015625)"></path>
      <path id="ArialMT-6e" d="M 422 0 
L 422 3319 
L 928 3319 
L 928 2847 
Q 1294 3394 1984 3394 
Q 2284 3394 2536 3286 
Q 2788 3178 2913 3003 
Q 3038 2828 3088 2588 
Q 3119 2431 3119 2041 
L 3119 0 
L 2556 0 
L 2556 2019 
Q 2556 2363 2490 2533 
Q 2425 2703 2258 2804 
Q 2091 2906 1866 2906 
Q 1506 2906 1245 2678 
Q 984 2450 984 1813 
L 984 0 
L 422 0 
z
" transform="scale(0.015625)"></path>
     </defs>
     <use xlink:href="#ArialMT-50"></use>
     <use xlink:href="#ArialMT-61" x="66.699219"></use>
     <use xlink:href="#ArialMT-72" x="122.314453"></use>
     <use xlink:href="#ArialMT-74" x="155.615234"></use>
     <use xlink:href="#ArialMT-69" x="183.398438"></use>
     <use xlink:href="#ArialMT-61" x="205.615234"></use>
     <use xlink:href="#ArialMT-6c" x="261.230469"></use>
     <use xlink:href="#ArialMT-20" x="283.447266"></use>
     <use xlink:href="#ArialMT-41" x="305.730469"></use>
     <use xlink:href="#ArialMT-75" x="372.429688"></use>
     <use xlink:href="#ArialMT-74" x="428.044922"></use>
     <use xlink:href="#ArialMT-6f" x="455.828125"></use>
     <use xlink:href="#ArialMT-63" x="511.443359"></use>
     <use xlink:href="#ArialMT-6f" x="561.443359"></use>
     <use xlink:href="#ArialMT-72" x="617.058594"></use>
     <use xlink:href="#ArialMT-72" x="650.359375"></use>
     <use xlink:href="#ArialMT-65" x="683.660156"></use>
     <use xlink:href="#ArialMT-6c" x="739.275391"></use>
     <use xlink:href="#ArialMT-61" x="761.492188"></use>
     <use xlink:href="#ArialMT-74" x="817.107422"></use>
     <use xlink:href="#ArialMT-69" x="844.890625"></use>
     <use xlink:href="#ArialMT-6f" x="867.107422"></use>
     <use xlink:href="#ArialMT-6e" x="922.722656"></use>
    </g>
   </g>
  </g>
 </g>
 <defs>
  <clipPath id="p72be0d9531">
   <rect x="44.531719" y="23.50725" width="357.12" height="266.112"></rect>
  </clipPath>
 </defs>
</svg>